<svg width="34" height="33" viewBox="0 0 34 33" fill="none" xmlns="http://www.w3.org/2000/svg">
<path d="M16.9997 23.0208C20.6815 23.0208 23.6664 20.036 23.6664 16.3542C23.6664 12.6723 20.6815 9.6875 16.9997 9.6875C13.3178 9.6875 10.333 12.6723 10.333 16.3542C10.333 20.036 13.3178 23.0208 16.9997 23.0208Z" stroke="#EDE1C0" stroke-width="2.5" stroke-linecap="round" stroke-linejoin="round"/>
<path d="M2 23.0212V9.68783C2 5.08546 5.73097 1.35449 10.3333 1.35449H23.6667C28.2691 1.35449 32.0001 5.08546 32.0001 9.68783V23.0212C32.0001 27.6235 28.2691 31.3545 23.6667 31.3545H10.3333C5.73097 31.3545 2 27.6235 2 23.0212Z" stroke="#EDE1C0" stroke-width="2.5"/>
<path d="M26.167 7.20406L26.1837 7.18555" stroke="#EDE1C0" stroke-width="2.5" stroke-linecap="round" stroke-linejoin="round"/>
</svg>
